# ProBuilder 5.2.2
# https://unity3d.com/unity/features/worldbuilding/probuilder
# 20/08/2024 13:13:35

mtllib ./CustomCharacterRoom.mtl
o CustomCharacterRoom

g Cube
v 8.19854 -2.554096 -8.523857
v -8.19854 -2.554096 -8.523857
v 8.19854 2.554096 -8.523857
v -8.19854 2.554096 -8.523857
v -8.5 -3 9
v -8.5 -3 -9
v -8.5 3 9
v -8.5 3 -9
v 8.5 -3 -9
v 8.5 3 -9
v 8.5 -3 9
v 8.5 3 9
v 8.19854 -2.554096 9
v -8.19854 -2.554096 9
v 8.19854 2.554096 9
v -8.19854 2.554096 9

vt 8.19854 -2.554096
vt -8.19854 -2.554096
vt 8.19854 2.554096
vt -8.19854 2.554096
vt 9 -3
vt -9 -3
vt 9 3
vt -9 3
vt 8.5 -3
vt -8.5 -3
vt 8.5 3
vt -8.5 3
vt -8.5 9
vt 8.5 9
vt -8.5 -9
vt 8.5 -9
vt -8.19854 9
vt 8.19854 9
vt -8.19854 -8.523857
vt 8.19854 -8.523857
vt 9 2.554096
vt 9 -2.554096
vt -8.523857 2.554096
vt -8.523857 -2.554096
vt -9 -2.554096
vt -9 2.554096
vt 8.523857 -2.554096
vt 8.523857 2.554096

vn 0 0 1
vn -1 0 0
vn 0 0 -1
vn 1 0 0
vn 0 1 0
vn 0 -1 0

usemtl ProBuilder_Default_HDRP
f 3/3/1 4/4/1 2/2/1 1/1/1
f 7/7/2 8/8/2 6/6/2 5/5/2
f 8/11/3 10/12/3 9/10/3 6/9/3
f 10/7/4 12/8/4 11/6/4 9/5/4
f 10/15/5 8/16/5 7/14/5 12/13/5
f 11/14/6 5/13/6 6/15/6 9/16/6
f 13/1/1 14/2/1 5/10/1 11/9/1
f 15/3/1 13/1/1 11/9/1 12/11/1
f 14/2/1 16/4/1 7/12/1 5/10/1
f 16/4/1 15/3/1 12/11/1 7/12/1
f 1/19/5 2/20/5 14/18/5 13/17/5
f 3/23/2 1/24/2 13/22/2 15/21/2
f 2/27/4 4/28/4 16/26/4 14/25/4
f 4/19/6 3/20/6 15/18/6 16/17/6

